 <svg  version="1.0" xmlns="http://www.w3.org/2000/svg"  width="512.000000pt" height="512.000000pt" viewBox="0 0 512.000000 512.000000"  preserveAspectRatio="xMidYMid meet">  <g transform="translate(0.000000,512.000000) scale(0.050000,-0.050000)" fill="#ff2600" stroke="none"> <path d="M4078 10212 c-4 -5 -75 -13 -158 -19 -246 -19 -316 -30 -477 -75 -84 -24 -166 -46 -183 -49 -16 -3 -30 -8 -30 -10 0 -2 -22 -6 -50 -10 -27 -4 -117 -35 -200 -69 -82 -35 -159 -66 -170 -69 -62 -16 -342 -151 -550 -265 -126 -69 -409 -258 -437 -293 -16 -18 -40 -33 -54 -33 -14 0 -29 -7 -32 -15 -4 -8 -99 -95 -212 -192 -113 -98 -269 -251 -348 -340 -78 -90 -168 -192 -200 -227 -31 -36 -57 -72 -57 -81 0 -8 -22 -39 -49 -68 -119 -129 -384 -589 -516 -897 -75 -174 -161 -407 -165 -446 -3 -24 -7 -44 -9 -44 -2 0 -7 -13 -10 -30 -3 -16 -25 -99 -49 -183 -23 -83 -47 -191 -52 -240 -5 -48 -14 -132 -20 -187 -26 -242 -25 -430 2 -430 17 0 31 41 40 121 13 116 33 135 54 49 5 -22 10 21 12 95 1 75 10 151 21 170 19 37 58 224 71 349 5 41 17 90 28 110 10 20 40 105 65 189 26 84 55 148 65 142 10 -6 13 -2 6 9 -7 11 5 65 26 121 21 55 32 107 24 116 -8 8 -3 9 11 1 16 -9 25 -2 25 17 0 18 22 76 49 129 27 54 44 103 37 110 -7 6 -2 12 11 12 12 0 23 20 23 45 1 32 5 37 17 18 12 -18 21 -8 30 35 6 33 30 79 52 101 23 23 41 48 41 56 -1 18 65 151 81 165 7 6 18 26 25 46 8 20 22 31 32 25 10 -6 14 7 8 29 -10 37 9 50 59 42 8 -1 13 5 10 13 -7 21 84 165 104 165 9 0 27 27 41 60 14 33 34 60 45 60 22 0 91 70 185 190 33 42 77 91 98 108 20 18 58 50 83 72 121 107 151 130 169 130 10 0 13 15 6 33 -10 26 -5 31 22 21 19 -8 29 -5 23 5 -6 10 7 24 29 31 22 7 40 20 40 29 0 20 164 131 185 125 8 -2 15 10 15 28 0 20 11 28 30 21 19 -7 30 0 30 20 0 20 11 27 31 19 17 -6 26 -3 20 7 -6 10 31 39 84 64 52 26 100 52 105 57 33 33 184 120 210 120 16 0 30 10 30 23 0 13 6 18 13 11 6 -7 49 8 95 33 107 59 312 136 312 117 0 -8 8 -3 16 10 9 14 33 28 55 32 21 5 66 19 99 33 33 13 78 27 100 30 22 3 54 11 70 17 87 32 178 54 245 59 41 3 75 12 75 20 0 8 29 15 65 15 36 0 109 14 163 30 54 17 153 30 220 31 120 1 121 1 62 28 l-60 28 90 4 c50 3 103 6 118 7 57 4 42 47 -20 59 -71 15 -187 17 -200 5z"/> <path d="M4681 10202 c-44 -30 -18 -43 112 -57 112 -11 115 -12 57 -33 -57 -21 -53 -23 70 -35 228 -23 561 -86 620 -117 17 -9 57 -19 90 -23 33 -4 65 -11 70 -17 6 -5 118 -45 250 -87 132 -43 288 -99 346 -125 58 -27 114 -48 125 -48 10 0 19 -9 19 -20 0 -11 17 -20 39 -20 21 0 44 -9 51 -19 6 -11 88 -61 181 -112 93 -51 165 -100 159 -108 -5 -9 6 -15 25 -14 19 2 33 -8 30 -21 -3 -14 8 -20 25 -13 19 7 30 -1 30 -22 0 -18 8 -28 18 -22 19 11 222 -146 222 -173 0 -9 18 -16 40 -16 22 0 40 -10 40 -21 0 -12 -11 -15 -25 -6 -17 10 -16 3 3 -20 15 -19 32 -29 38 -24 5 6 26 -9 46 -32 22 -25 50 -37 68 -30 18 7 28 5 22 -4 -13 -21 216 -248 233 -232 7 7 7 -8 0 -34 -11 -43 -9 -45 24 -17 34 27 36 26 22 -16 -10 -32 -6 -43 12 -40 15 4 25 -5 22 -19 -3 -14 8 -25 23 -25 24 0 55 -43 60 -83 1 -8 10 -21 20 -30 11 -10 12 -5 3 13 -8 17 8 3 36 -30 28 -33 52 -71 52 -85 1 -14 15 -25 32 -25 17 0 26 -9 19 -20 -7 -11 2 -26 19 -33 21 -7 28 -25 20 -49 -9 -30 -4 -35 23 -24 27 10 32 5 22 -22 -8 -19 -5 -29 5 -22 11 6 33 -16 51 -49 17 -34 25 -61 17 -61 -7 0 4 -16 25 -35 21 -19 58 -75 83 -125 24 -49 45 -81 45 -70 1 11 15 -11 33 -50 17 -38 48 -106 68 -150 101 -221 179 -409 175 -426 -2 -15 15 -66 46 -134 10 -22 20 -58 24 -80 3 -22 11 -49 17 -60 26 -43 80 -298 70 -333 -5 -20 -2 -33 6 -27 17 10 47 -217 50 -370 1 -49 9 -111 19 -138 13 -37 10 -44 -11 -32 -22 13 -22 11 -2 -11 14 -15 25 -52 25 -83 0 -31 -11 -56 -25 -57 -15 0 -11 -11 11 -27 33 -25 33 -30 3 -60 -17 -18 -22 -32 -11 -32 13 0 22 -60 23 -155 2 -234 1 -244 -23 -405 -12 -82 -25 -180 -29 -216 -3 -37 -14 -77 -24 -90 -9 -13 -20 -55 -23 -94 -9 -119 -140 -560 -166 -560 -9 0 -15 -7 -14 -15 7 -40 -4 -66 -22 -55 -11 7 -15 -1 -8 -17 6 -17 0 -51 -15 -76 -14 -26 -26 -56 -28 -67 -2 -11 -5 -27 -8 -35 -4 -8 -8 -26 -9 -40 -2 -14 -13 -23 -24 -21 -11 2 -21 -21 -24 -50 -2 -30 -13 -57 -24 -61 -11 -3 -20 -21 -21 -40 0 -44 -49 -106 -68 -88 -8 8 -13 6 -10 -5 8 -43 -3 -70 -45 -109 -24 -23 -37 -41 -29 -41 9 0 -10 -45 -41 -100 -34 -62 -66 -96 -82 -90 -19 7 -23 -2 -13 -33 11 -35 7 -41 -21 -30 -28 11 -33 5 -24 -28 6 -23 0 -46 -14 -51 -13 -5 -69 -72 -123 -148 -55 -77 -110 -140 -124 -140 -14 0 -23 -11 -20 -24 3 -13 -8 -25 -25 -26 -16 -1 -28 -13 -25 -26 3 -13 -5 -24 -17 -24 -12 0 -17 -14 -10 -31 6 -17 4 -26 -6 -20 -23 14 -205 -168 -191 -191 6 -10 -3 -12 -20 -6 -17 7 -31 2 -31 -11 0 -13 -8 -18 -19 -12 -10 6 -24 3 -31 -9 -7 -11 -1 -20 14 -20 19 -1 19 -5 -3 -19 -16 -10 -36 -14 -45 -8 -9 5 -16 -5 -16 -22 0 -17 -9 -31 -21 -31 -12 0 -53 -32 -93 -70 -40 -39 -77 -66 -82 -60 -6 5 -23 -9 -39 -31 -16 -23 -41 -37 -56 -32 -14 6 -51 -18 -82 -53 -66 -74 -174 -139 -197 -118 -9 7 -10 3 -2 -10 9 -16 -5 -29 -37 -38 -28 -7 -51 -22 -51 -34 0 -11 -6 -15 -13 -8 -7 7 -27 -2 -45 -21 -42 -45 -113 -85 -152 -85 -16 0 -30 -10 -30 -21 0 -12 -10 -15 -21 -8 -12 7 -38 -2 -58 -20 -20 -18 -56 -35 -79 -36 -23 -2 -42 -11 -42 -19 0 -9 -16 -16 -36 -16 -20 0 -45 -8 -55 -17 -40 -35 -250 -107 -280 -95 -17 6 -26 3 -19 -8 6 -10 -13 -25 -44 -32 -31 -7 -110 -30 -176 -50 -66 -21 -151 -39 -190 -41 -38 -2 -79 -10 -90 -18 -11 -8 -69 -21 -130 -29 -60 -8 -131 -23 -156 -32 -33 -13 -42 -11 -32 5 9 15 5 18 -9 9 -27 -17 -166 -36 -253 -34 -33 0 -184 1 -335 2 -201 1 -275 8 -275 26 0 15 -8 13 -20 -6 -11 -16 -20 -20 -20 -8 0 12 -43 21 -105 20 -223 -2 -782 118 -863 186 -22 17 -32 21 -24 7 9 -17 4 -21 -17 -13 -17 7 -31 20 -31 30 0 9 -13 12 -30 5 -16 -6 -30 -1 -30 11 0 12 -7 21 -15 20 -50 -8 -106 6 -133 33 -18 17 -40 26 -50 20 -10 -6 -31 0 -45 14 -15 14 -42 28 -61 31 -19 3 -85 32 -147 65 -62 32 -122 59 -134 59 -11 0 -37 19 -58 43 -20 24 -37 35 -38 25 0 -10 -13 -1 -30 21 -16 21 -29 32 -29 23 0 -17 -143 65 -162 94 -7 9 -20 18 -30 20 -43 4 -128 66 -128 92 0 16 -5 23 -12 17 -11 -11 -28 1 -136 97 -27 23 -63 48 -81 55 -19 7 -28 21 -22 31 6 10 -7 14 -29 8 -33 -9 -38 -4 -27 25 10 24 6 31 -10 21 -14 -9 -31 6 -43 39 -16 40 -31 51 -60 43 -22 -6 -36 -3 -30 6 5 9 -19 46 -54 83 -35 37 -62 74 -60 83 3 10 -4 12 -14 5 -11 -7 -41 20 -68 58 -26 39 -53 65 -61 58 -7 -8 -13 0 -13 18 0 29 -52 65 -85 58 -8 -2 -15 14 -15 34 0 20 -25 64 -55 96 -111 120 -146 169 -134 188 6 10 -4 19 -22 19 -21 0 -29 11 -22 30 7 17 1 28 -13 25 -13 -3 -21 11 -18 30 3 20 -7 35 -23 35 -16 0 -44 34 -62 75 -37 84 -117 222 -149 259 -30 33 -28 51 3 36 14 -7 5 5 -20 27 -25 22 -45 49 -45 61 0 11 -17 50 -37 86 -34 63 -69 162 -72 206 0 11 -8 25 -16 31 -17 13 -177 469 -186 529 -3 22 -25 130 -50 240 -24 110 -48 243 -53 295 -10 96 -35 125 -52 60 -5 -19 -11 1 -13 45 -13 248 -68 301 -68 65 0 -113 6 -189 37 -472 5 -49 29 -157 52 -240 24 -84 46 -166 49 -183 3 -16 8 -30 10 -30 2 0 6 -20 9 -44 4 -39 90 -272 165 -446 122 -285 405 -783 497 -875 16 -16 38 -47 51 -70 12 -23 47 -69 77 -103 30 -34 119 -135 197 -225 79 -89 235 -242 348 -340 113 -97 208 -184 212 -192 3 -8 17 -15 30 -15 13 0 47 -22 77 -49 56 -52 296 -212 416 -278 171 -94 499 -251 550 -264 11 -3 88 -34 170 -69 83 -34 173 -65 200 -69 28 -4 50 -8 50 -10 0 -2 14 -7 30 -11 17 -3 120 -30 229 -59 110 -28 211 -48 225 -42 13 5 30 1 36 -9 6 -9 26 -17 45 -17 19 0 121 -8 225 -17 343 -29 954 -17 1190 25 33 5 74 11 90 11 17 1 116 24 220 52 105 28 204 53 220 57 17 3 30 8 30 10 0 2 23 6 50 10 28 4 118 35 200 69 83 35 159 66 170 69 62 16 359 159 560 270 115 63 355 224 407 272 29 27 60 49 68 49 9 0 45 26 81 57 35 32 137 122 227 200 89 79 242 235 340 348 97 113 184 208 192 212 8 3 15 17 15 30 0 13 22 47 49 76 50 54 210 295 277 417 112 204 249 488 265 550 3 11 34 88 69 170 34 83 65 173 69 200 4 28 8 50 10 50 2 0 7 14 10 30 3 17 25 98 48 180 23 83 47 186 54 230 6 44 15 103 20 130 50 276 50 1124 0 1400 -5 28 -14 86 -20 130 -7 44 -31 148 -54 230 -23 83 -45 164 -48 180 -3 17 -8 30 -10 30 -2 0 -6 23 -10 50 -4 28 -35 118 -69 200 -35 83 -66 159 -69 170 -13 52 -172 382 -264 550 -73 133 -247 394 -287 430 -22 20 -40 44 -40 54 0 9 -26 46 -57 82 -32 35 -122 137 -200 227 -79 89 -235 242 -348 340 -113 97 -208 184 -212 192 -3 8 -18 15 -32 15 -14 0 -38 15 -54 33 -28 35 -313 226 -437 293 -101 55 -463 236 -510 254 -242 97 -380 146 -416 150 -24 3 -44 7 -44 9 0 2 -13 7 -30 11 -16 4 -118 30 -225 59 -107 29 -204 48 -215 41 -11 -7 -31 -5 -45 3 -14 9 -52 17 -85 18 -33 1 -150 8 -260 16 -125 9 -211 7 -229 -5z"/> <path d="M8724 10176 c-29 -29 -32 -116 -5 -116 11 0 15 14 8 30 -18 48 10 107 34 69 15 -24 18 -23 19 6 0 41 -22 45 -56 11z"/> <path d="M8903 10067 c12 -15 17 -50 12 -77 -5 -28 -3 -55 4 -59 8 -5 16 30 18 77 3 65 -3 85 -26 85 -23 0 -25 -6 -8 -26z"/> <path d="M8447 9865 c9 -14 6 -25 -7 -25 -14 0 -15 -12 -3 -35 9 -19 14 -46 9 -60 -5 -14 6 -25 27 -25 21 0 28 7 17 15 -11 8 -23 38 -26 65 -5 40 -1 44 15 20 11 -16 21 -20 21 -7 0 12 -15 34 -34 50 -23 18 -29 19 -19 2z"/> <path d="M4150 9642 c-261 -153 -1052 -611 -1680 -972 -110 -64 -285 -165 -390 -226 -104 -60 -392 -226 -638 -368 -247 -142 -461 -273 -475 -292 -37 -49 -39 -4040 -2 -4089 26 -33 107 -83 445 -274 110 -63 353 -202 540 -310 187 -109 484 -280 660 -381 291 -167 495 -286 1525 -882 390 -226 347 -224 672 -35 144 85 376 218 513 297 138 79 363 209 500 289 315 183 1338 773 1630 940 451 258 586 342 598 373 16 42 16 4015 0 4057 -7 18 -82 73 -165 123 -84 49 -166 98 -183 108 -16 10 -129 74 -250 142 -121 68 -247 140 -280 159 -106 60 -813 469 -1010 583 -104 61 -343 198 -530 306 -187 108 -416 241 -510 296 -683 399 -583 383 -970 156z m428 -49 c26 -31 -19 -84 -48 -58 -9 8 -10 4 -3 -9 8 -13 2 -30 -12 -39 -32 -21 -78 -27 -67 -10 11 18 -41 63 -56 48 -7 -6 -12 3 -12 22 0 18 14 33 31 33 17 0 26 9 19 20 -19 31 122 24 148 -7z m-212 -808 l-4 -675 -86 -5 c-76 -5 -413 -32 -1946 -156 -209 -17 -447 -39 -528 -50 -202 -27 -200 -24 102 145 146 82 622 354 1056 605 435 252 897 519 1028 595 131 75 261 154 290 176 29 21 61 39 72 39 13 1 19 -234 16 -674z m354 632 c39 -24 264 -155 500 -292 237 -137 543 -314 680 -394 469 -271 1190 -684 1325 -759 139 -76 169 -105 89 -85 -25 6 -261 30 -525 52 -737 62 -1948 160 -2055 166 l-97 5 -3 675 c-2 371 1 675 6 675 6 0 42 -19 80 -43z m-212 -1349 c18 -7 27 -20 21 -30 -6 -10 -1 -18 11 -18 12 0 17 -9 10 -20 -7 -12 2 -14 22 -6 26 9 30 6 18 -14 -12 -19 -8 -23 15 -15 52 20 77 -29 38 -76 -36 -44 -103 -78 -103 -51 0 20 -136 13 -156 -9 -8 -8 -3 -9 11 -1 14 8 25 10 25 4 0 -6 -19 -21 -43 -34 -38 -20 -42 -18 -32 20 6 23 2 48 -10 55 -12 8 -15 4 -7 -10 8 -13 6 -23 -4 -23 -17 0 -27 23 -44 95 -2 8 7 17 19 21 13 5 16 -7 8 -29 -7 -20 -10 -32 -5 -27 5 6 26 31 47 56 38 45 38 46 0 32 -55 -20 -24 9 54 51 37 20 69 37 70 39 2 1 18 -3 35 -10z m-2926 -125 c-16 -30 -16 -44 1 -55 14 -9 18 -5 9 9 -23 37 11 27 40 -12 15 -19 27 -53 27 -75 0 -33 -3 -35 -19 -10 -11 17 -20 20 -20 7 0 -33 -126 -59 -136 -29 -6 18 -15 18 -37 -1 -24 -19 -34 -19 -48 4 -15 23 -19 21 -21 -11 -2 -34 -4 -35 -12 -5 -5 19 -18 35 -30 35 -11 0 -15 -13 -9 -28 6 -16 -2 -34 -18 -40 -16 -6 -29 -1 -29 10 0 11 -9 15 -21 7 -14 -8 -14 -21 2 -41 28 -33 19 -35 -53 -7 l-55 21 69 34 c44 22 66 46 62 69 -3 19 4 35 16 35 12 0 17 -8 11 -19 -19 -30 75 -15 114 18 19 16 35 42 35 58 0 16 12 23 30 16 18 -7 30 0 30 16 0 16 16 32 35 36 48 11 52 5 27 -42z m5982 -50 c14 8 16 4 6 -13 -12 -20 -7 -23 20 -13 31 12 32 10 8 -20 -25 -31 -24 -33 8 -21 20 7 31 5 25 -5 -15 -24 -178 -18 -195 8 -8 11 5 41 29 66 37 40 45 42 60 15 10 -17 27 -25 39 -17z m-3304 -41 c0 -4 -70 -119 -156 -255 -86 -136 -206 -328 -267 -427 -61 -99 -222 -360 -358 -580 -135 -220 -435 -706 -665 -1080 -231 -374 -429 -700 -440 -725 -21 -46 -54 -61 -54 -25 0 12 -163 455 -362 985 -199 531 -429 1143 -510 1362 -82 218 -158 414 -170 436 -30 56 -69 49 602 105 1998 166 2330 195 2338 203 11 11 42 12 42 1z m1386 -81 c464 -39 1122 -93 1462 -121 672 -55 644 -50 615 -104 -31 -58 -1043 -2759 -1043 -2784 0 -52 -37 -8 -138 164 -59 101 -347 571 -639 1044 -292 473 -586 950 -653 1060 -281 456 -398 644 -453 724 -65 95 -70 115 -26 98 17 -6 411 -43 875 -81z m2114 -10 c0 -10 20 -22 45 -26 42 -7 42 -9 8 -25 -27 -11 -43 -7 -57 17 -10 19 -26 29 -36 23 -9 -6 -23 -2 -30 10 -7 11 6 20 29 20 22 0 41 -8 41 -19z m-3211 -86 c71 -124 1798 -2926 1854 -3009 31 -46 57 -86 57 -90 0 -3 -882 -6 -1960 -6 -1078 0 -1960 1 -1960 2 0 2 84 137 186 300 225 359 1672 2711 1725 2803 21 36 43 65 49 65 6 0 28 -29 49 -65z m-3395 -168 c-8 -7 -3 -26 9 -41 12 -15 17 -33 10 -40 -7 -7 2 -29 20 -49 22 -25 25 -37 9 -37 -17 0 -14 -10 7 -31 17 -18 32 -40 34 -50 1 -11 4 -28 7 -39 3 -11 6 -30 8 -41 1 -12 12 -15 25 -7 15 9 18 5 8 -10 -8 -13 0 -46 18 -73 20 -31 24 -49 9 -49 -16 0 -16 -9 2 -30 16 -19 17 -30 4 -30 -12 0 -27 9 -34 20 -7 12 -21 15 -31 9 -11 -6 -19 -2 -19 9 0 11 -18 16 -40 11 -22 -5 -57 -13 -78 -17 -35 -8 -36 -5 -11 44 18 34 21 60 9 72 -12 12 -11 29 3 46 16 19 16 26 -1 26 -26 0 -20 89 7 114 10 9 10 4 1 -12 -11 -19 -9 -23 6 -14 12 7 17 26 11 43 -6 16 -19 24 -29 18 -22 -14 -24 78 -3 99 8 9 16 24 18 34 4 33 7 38 20 38 8 0 8 -6 1 -13z m6729 -134 c-22 -27 -20 -134 2 -120 8 5 16 -11 17 -37 4 -70 -4 -105 -24 -113 -10 -3 -18 -15 -18 -26 0 -11 11 -13 25 -5 14 8 19 7 11 -1 -8 -9 -5 -35 8 -59 22 -42 21 -42 -21 -4 -24 21 -43 31 -43 23 0 -9 -14 -4 -31 10 -17 14 -26 37 -21 51 6 16 -1 22 -19 15 -16 -6 -29 -2 -29 9 0 11 14 25 31 32 17 6 29 28 26 47 -3 19 1 46 10 60 9 14 20 50 25 79 13 70 26 89 50 75 13 -8 13 -21 1 -36z m-6603 -543 c25 -77 211 -581 414 -1120 470 -1250 455 -1208 445 -1216 -5 -3 -189 -104 -409 -223 -220 -120 -424 -234 -453 -254 -29 -20 -56 -37 -60 -37 -4 0 -4 497 0 1105 4 608 0 1287 -7 1509 l-14 405 -58 -30 c-32 -17 -58 -26 -58 -20 0 5 25 23 55 39 72 38 88 20 145 -158z m6510 -1348 c0 -824 -4 -1495 -10 -1492 -99 61 -853 471 -883 481 -55 18 -79 -55 408 1239 237 627 436 1169 444 1205 36 163 41 -29 41 -1433z m-5385 -820 c8 -1 15 -18 15 -38 0 -45 108 -170 128 -149 20 20 -9 -99 -31 -127 -9 -12 -13 -25 -8 -30 4 -5 -13 -18 -39 -31 -42 -19 -48 -16 -59 27 -10 39 -18 45 -40 27 -20 -17 -34 -15 -57 8 -17 17 -44 26 -59 20 -16 -6 -29 1 -29 15 -1 14 -4 40 -8 56 -5 17 3 28 16 25 15 -3 20 8 12 29 -9 22 -5 28 11 18 12 -8 23 -5 23 7 0 11 -9 21 -20 21 -11 0 -20 10 -20 21 0 12 8 17 17 11 9 -6 16 2 16 17 0 15 -12 23 -26 17 -29 -11 -33 -4 -16 38 9 25 57 29 174 18z m4247 -19 c-6 -10 9 -40 33 -67 48 -53 64 -116 29 -116 -11 0 -16 -5 -9 -11 14 -15 -14 -122 -29 -109 -7 6 -31 -7 -54 -28 -23 -21 -42 -31 -42 -23 0 9 -13 5 -29 -8 -23 -19 -35 -13 -64 31 -46 70 -51 108 -16 121 16 6 25 18 20 26 -5 8 26 41 69 73 72 53 114 111 55 75 -17 -10 -16 -4 2 19 29 35 53 47 35 17z m-276 -380 c-25 -32 -262 -317 -525 -635 -264 -318 -673 -812 -909 -1098 -236 -286 -436 -520 -444 -520 -8 0 -62 60 -121 133 -59 73 -467 567 -907 1098 -440 531 -821 991 -846 1022 l-47 57 1923 0 1923 0 -47 -57z m-3424 -803 c902 -1097 988 -1196 988 -1134 0 16 16 41 35 56 19 15 28 19 20 9 -8 -9 -3 -31 10 -48 18 -21 18 -26 1 -17 -13 8 -28 7 -33 -1 -6 -9 14 -19 43 -21 30 -2 58 -15 62 -28 4 -12 34 -48 65 -79 32 -32 52 -57 45 -57 -7 0 10 -19 39 -42 30 -22 48 -50 42 -60 -7 -10 -5 -17 5 -13 9 3 19 -4 23 -15 3 -11 15 -30 26 -43 12 -15 11 -29 -5 -38 -13 -8 -19 -7 -13 3 6 10 -2 30 -17 44 -15 14 -28 16 -28 5 0 -28 -103 19 -134 61 -16 22 -46 30 -88 26 -54 -7 -59 -3 -38 22 27 33 18 37 -80 35 -27 -1 -39 3 -25 8 14 6 25 20 25 32 0 12 -5 16 -12 10 -15 -15 -84 50 -74 70 5 8 17 15 28 15 11 0 15 -9 8 -20 -7 -11 1 -20 18 -20 16 0 36 10 44 23 8 14 5 18 -7 10 -12 -7 -25 -5 -28 4 -9 24 -233 167 -551 350 -1573 908 -1927 1111 -1964 1122 -61 20 -52 40 33 79 41 18 251 131 465 251 360 200 392 214 422 184 18 -18 310 -370 650 -783z m4307 521 c204 -110 377 -201 385 -201 34 0 13 -38 -28 -51 -23 -8 -264 -142 -535 -298 -270 -157 -783 -454 -1141 -661 -357 -207 -697 -408 -755 -446 -158 -105 -146 -72 60 168 103 120 335 398 517 618 181 220 472 573 646 784 l318 384 82 -47 c45 -27 248 -139 451 -250z m-6018 -71 c26 5 54 -2 63 -15 23 -36 19 -56 -9 -50 -16 3 -22 -14 -19 -48 7 -62 -12 -79 -71 -64 -26 7 -38 22 -31 39 7 20 1 25 -22 16 -35 -13 -41 25 -19 107 8 33 19 40 36 26 13 -11 45 -16 72 -11z m6635 -76 c4 -43 -2 -56 -23 -48 -17 7 -27 -1 -26 -20 4 -40 -81 -50 -96 -12 -7 18 -1 23 14 16 14 -7 9 0 -10 16 -37 30 -49 65 -15 44 11 -7 20 -3 20 8 0 11 15 15 33 8 21 -8 29 -5 20 9 -13 21 14 38 58 38 12 0 23 -26 25 -59z m-2835 -1472 c-11 -21 -32 -44 -46 -50 -14 -7 -5 -9 20 -4 34 6 44 0 40 -24 -3 -17 16 -42 41 -55 l47 -24 -60 -43 c-32 -23 -71 -42 -85 -42 -15 0 -10 -13 13 -32 35 -28 36 -30 3 -20 -20 7 -54 3 -74 -8 -25 -13 -42 -13 -50 0 -18 29 -67 -24 -54 -58 8 -21 -1 -25 -31 -17 -26 6 -57 -4 -81 -25 -22 -21 -49 -30 -63 -21 -18 11 -16 19 9 28 18 7 27 21 21 32 -7 10 1 26 16 35 15 9 38 37 51 62 13 25 34 39 46 31 13 -8 17 -4 9 9 -8 12 4 32 27 44 23 12 36 31 29 41 -7 11 0 18 14 14 14 -3 26 9 27 25 1 17 13 28 26 25 13 -3 24 7 24 23 0 15 20 41 45 59 58 40 60 40 36 -5z m-537 -463 c29 1 59 -8 66 -19 8 -12 -19 -20 -69 -20 -44 0 -81 8 -81 19 0 10 -16 22 -35 27 -19 5 -12 5 15 0 28 -4 74 -8 104 -7z"/> <path d="M6500 7514 c-58 -27 -70 -36 -190 -149 -49 -46 -90 -94 -90 -105 0 -12 -23 -31 -51 -44 -28 -13 -46 -35 -41 -49 6 -14 -4 -34 -21 -43 -38 -22 -39 -44 -4 -66 22 -14 22 -17 0 -18 -23 0 -23 -6 -3 -30 14 -17 20 -36 14 -43 -12 -12 4 -34 80 -116 24 -26 38 -52 31 -59 -6 -7 2 -12 18 -12 17 0 42 -22 56 -48 14 -26 52 -67 83 -91 32 -23 58 -58 58 -77 1 -25 5 -27 17 -8 13 21 22 20 42 -5 14 -17 34 -26 43 -20 10 6 18 3 18 -8 0 -30 139 -38 176 -10 19 14 51 26 71 26 20 1 41 19 47 41 10 38 29 48 79 42 13 -2 30 6 37 17 7 13 -2 16 -24 8 -21 -7 -3 22 42 69 43 45 87 77 98 70 11 -7 15 -3 8 8 -7 11 14 50 47 87 32 36 60 76 62 88 11 99 9 128 -16 176 -15 30 -25 57 -22 60 3 3 -35 42 -85 86 -49 43 -112 100 -140 126 -116 109 -319 154 -440 97z m405 -209 c130 -130 215 -230 215 -254 0 -48 -414 -471 -461 -471 -36 0 -479 431 -479 466 0 35 444 474 479 474 17 0 127 -97 246 -215z"/> <path d="M6370 6460 c7 -11 -5 -20 -26 -20 -66 0 -204 -115 -217 -182 -9 -43 -21 -57 -43 -49 -24 10 -25 6 -6 -17 16 -19 17 -33 3 -41 -32 -20 -26 -35 39 -111 33 -38 60 -76 60 -83 0 -7 32 -27 70 -46 39 -18 70 -41 70 -51 0 -10 20 -13 45 -7 25 6 63 13 85 16 22 3 38 14 36 25 -2 10 27 35 64 55 66 35 122 135 98 174 -6 10 -3 30 7 43 27 37 19 67 -30 109 -24 22 -38 45 -31 52 7 7 -2 13 -21 13 -29 0 -41 21 -36 63 1 7 -16 8 -38 3 -21 -6 -39 -1 -39 12 0 12 -14 22 -31 22 -17 0 -26 9 -19 20 7 11 -2 20 -20 20 -18 0 -27 -9 -20 -20z m147 -169 c126 -133 127 -149 8 -268 -141 -141 -149 -141 -287 -10 -139 133 -139 142 6 286 129 126 147 126 273 -8z"/> <path d="M4895 6199 c-279 -68 -345 -201 -345 -699 l0 -390 56 -95 c182 -311 631 -295 795 26 53 104 59 773 8 895 -82 195 -310 312 -514 263z m250 -321 c42 -50 53 -667 13 -741 -52 -98 -219 -111 -301 -23 -57 60 -82 629 -32 726 60 117 238 138 320 38z"/> <path d="M3790 6163 c-211 -96 -313 -359 -169 -434 85 -43 152 -10 199 100 58 135 209 151 277 29 51 -89 0 -184 -328 -620 -292 -388 -263 -438 258 -438 347 0 393 15 393 126 -1 128 -64 160 -280 142 -192 -16 -191 -22 -30 192 297 391 338 595 163 795 -79 90 -197 144 -313 144 -49 0 -126 -16 -170 -36z"/> <path d="M3740 4131 c-27 -17 -74 -40 -104 -52 -30 -12 -53 -33 -50 -46 2 -13 -5 -21 -17 -19 -11 2 -22 -16 -24 -39 -2 -23 -10 -47 -19 -53 -25 -18 -31 -82 -10 -108 10 -13 30 -58 43 -99 13 -42 32 -71 41 -65 8 5 21 -4 27 -20 7 -17 26 -30 44 -30 17 0 26 -9 19 -20 -7 -11 2 -20 19 -20 17 0 31 -9 31 -21 0 -11 11 -18 25 -16 14 3 45 -6 70 -20 33 -18 45 -18 45 -2 0 13 14 18 30 12 18 -7 30 0 30 18 0 16 8 27 19 24 10 -3 32 13 48 35 29 38 31 38 44 3 8 -20 6 -43 -4 -50 -95 -65 -106 -317 -16 -388 27 -21 47 -44 44 -52 -4 -7 47 -66 112 -131 65 -64 111 -105 102 -90 -9 16 16 0 55 -35 106 -92 197 -118 275 -77 34 17 71 26 82 20 10 -7 19 -2 19 11 0 28 181 191 204 184 9 -3 14 2 11 10 -3 9 30 58 74 110 43 51 81 105 84 119 16 81 26 119 39 139 9 14 5 18 -9 9 -21 -13 -25 -5 -31 73 -3 40 -138 195 -169 195 -10 0 -24 22 -31 50 -7 27 -19 48 -28 45 -8 -3 -42 20 -74 51 -124 117 -390 189 -354 96 7 -17 2 -23 -11 -15 -12 8 -28 4 -36 -8 -7 -12 -26 -17 -41 -11 -15 6 -25 3 -23 -7 4 -12 -158 -181 -174 -181 -12 0 3 96 19 120 22 35 14 125 -13 142 -10 6 -21 32 -22 57 -2 25 -27 60 -54 78 -28 18 -55 37 -61 44 -41 49 -215 67 -280 30z m234 -135 c130 -128 131 -159 12 -280 -123 -125 -164 -125 -289 3 -122 125 -121 143 10 274 131 132 137 132 267 3z m817 -415 c120 -121 222 -230 226 -242 10 -30 -437 -479 -476 -479 -46 0 -461 423 -461 469 0 48 414 471 461 471 17 0 130 -99 250 -219z"/> <path d="M8920 9650 c2 -33 3 -64 0 -70 -20 -56 -7 -120 26 -120 22 0 31 -9 22 -23 -9 -15 -5 -18 12 -7 21 13 20 21 -5 39 -21 15 -32 55 -32 119 0 52 -6 101 -13 109 -8 7 -12 -14 -10 -47z"/> <path d="M8415 9651 c-31 -23 -32 -29 -5 -51 24 -20 32 -19 42 7 19 51 1 73 -37 44z"/> <path d="M3670 9599 c-818 -173 -1611 -638 -2128 -1247 -245 -288 -199 -262 251 143 40 36 81 65 91 65 10 0 13 9 6 20 -7 11 -2 20 10 20 22 0 48 19 121 85 22 19 43 35 49 35 12 0 79 54 156 127 33 32 90 70 127 86 37 15 67 37 67 48 0 12 8 16 19 10 10 -7 28 4 39 24 12 19 21 27 21 16 1 -10 20 1 42 26 23 24 50 39 60 32 11 -6 19 -1 19 11 0 12 8 17 18 11 11 -6 32 2 48 18 16 16 35 24 42 17 6 -7 12 -3 12 9 0 19 69 53 100 50 16 -2 129 63 142 82 7 9 20 17 30 17 31 2 76 18 131 48 29 15 71 28 93 28 21 0 50 14 64 30 14 17 30 27 35 21 6 -5 26 -1 45 9 18 10 55 23 82 28 26 6 152 46 278 90 254 87 226 104 -70 41z"/> <path d="M5260 9557 c127 -44 275 -94 330 -111 55 -17 108 -45 117 -61 15 -25 21 -25 35 -2 13 20 17 20 18 2 0 -14 17 -25 39 -25 21 0 44 -9 51 -20 7 -11 35 -20 62 -20 29 0 45 -9 38 -20 -7 -11 -1 -20 14 -20 14 0 51 -13 82 -29 30 -16 50 -21 44 -10 -7 10 2 13 19 7 17 -7 31 -21 31 -31 0 -11 9 -14 20 -7 11 7 20 2 20 -10 0 -12 8 -17 18 -11 11 6 32 -2 48 -18 16 -16 35 -24 42 -17 6 7 12 2 12 -11 0 -12 19 -23 41 -23 23 0 36 -8 30 -18 -9 -15 95 -71 135 -72 8 0 24 -13 34 -30 11 -16 20 -23 20 -14 0 9 13 5 29 -10 67 -60 90 -76 111 -76 12 0 26 -13 33 -30 6 -16 24 -30 40 -30 16 0 57 -28 93 -61 105 -101 141 -129 198 -158 30 -15 50 -34 45 -43 -6 -9 8 -26 30 -37 22 -12 61 -42 87 -66 166 -158 409 -357 385 -315 -344 587 -1418 1264 -2284 1439 -303 61 -324 48 -67 -42z"/> <path d="M813 7160 c-330 -853 -344 -1903 -34 -2738 75 -202 87 -107 19 149 -24 88 -46 209 -51 269 -8 125 -40 285 -47 240 -30 -198 -56 1034 -26 1257 7 48 18 76 26 63 16 -26 30 58 52 295 7 80 20 145 28 145 19 0 68 287 55 323 -8 22 -13 21 -22 -3z"/> <path d="M8160 7134 c0 -63 36 -249 59 -304 9 -22 28 -125 41 -230 13 -104 31 -199 39 -210 8 -11 17 -101 19 -200 3 -99 15 -191 26 -205 15 -17 14 -25 -1 -25 -14 0 -20 -120 -18 -376 1 -207 -4 -387 -13 -400 -8 -13 -9 -33 -2 -44 6 -10 3 -35 -7 -55 -21 -40 -41 -147 -55 -305 -6 -60 -18 -128 -28 -150 -46 -109 -81 -361 -43 -319 33 38 163 484 203 696 125 670 67 1448 -151 2028 -59 155 -69 170 -69 99z"/> <path d="M1400 3307 c0 -8 38 -60 85 -116 47 -55 98 -118 115 -138 392 -488 1338 -1022 2077 -1172 285 -58 323 -48 103 27 -104 36 -235 81 -290 101 -55 19 -122 39 -148 44 -26 5 -67 22 -89 38 -23 16 -62 29 -87 29 -26 0 -46 9 -46 20 0 11 -22 20 -50 20 -27 0 -50 10 -50 21 0 12 -8 17 -17 11 -10 -6 -38 7 -63 28 -26 22 -55 40 -67 40 -37 0 -213 87 -213 105 0 9 -9 12 -20 5 -11 -7 -20 -2 -20 10 0 12 -7 18 -16 12 -9 -5 -32 8 -51 30 -19 22 -43 34 -54 28 -10 -7 -19 -3 -19 9 0 11 -11 21 -25 21 -14 1 -47 24 -73 51 -37 39 -52 45 -65 25 -13 -20 -16 -19 -17 5 0 17 -25 45 -55 63 -30 18 -75 50 -99 70 -24 21 -68 56 -98 77 -30 22 -80 64 -111 94 -30 30 -60 55 -66 55 -6 0 -46 34 -90 75 -200 191 -381 339 -381 312z"/> <path d="M7468 3218 c-65 -57 -145 -127 -178 -156 -33 -30 -89 -75 -124 -101 -36 -26 -60 -55 -54 -64 6 -9 -3 -17 -20 -17 -16 0 -42 -18 -58 -40 -15 -22 -32 -36 -36 -31 -5 5 -58 -35 -116 -89 -59 -55 -115 -94 -125 -88 -9 6 -23 -4 -29 -21 -7 -17 -25 -31 -41 -31 -15 0 -33 -13 -40 -30 -6 -16 -18 -25 -27 -20 -8 5 -38 -8 -66 -30 -28 -22 -59 -40 -70 -40 -10 0 -31 -14 -45 -31 -14 -18 -43 -27 -63 -22 -20 5 -31 1 -25 -9 6 -10 4 -18 -6 -18 -10 0 -36 -17 -58 -38 -39 -36 -155 -103 -177 -102 -56 2 -70 -3 -59 -21 7 -12 1 -20 -14 -18 -58 8 -99 -2 -87 -21 7 -11 -6 -20 -28 -20 -22 0 -46 -10 -53 -21 -7 -12 -24 -17 -38 -12 -14 5 -50 -7 -81 -27 -31 -20 -68 -32 -83 -26 -15 6 -27 0 -27 -12 0 -12 -7 -21 -15 -19 -16 3 -29 0 -145 -42 -38 -14 -155 -55 -260 -92 -227 -79 -176 -87 140 -20 847 177 1621 658 2217 1376 63 76 3 50 -109 -47z"/> </g> </svg> 